<?xml version="1.0" encoding="utf-8"?>
<!-- Generated by IcoMoon.io -->
<!DOCTYPE svg PUBLIC "-//W3C//DTD SVG 1.1//EN" "http://www.w3.org/Graphics/SVG/1.1/DTD/svg11.dtd">
<svg version="1.1" xmlns="http://www.w3.org/2000/svg" xmlns:xlink="http://www.w3.org/1999/xlink" width="5870" height="1024" viewBox="0 0 5870 1024">
<g id="icomoon-ignore">
</g>
<path d="M122.458 260.066c0-106.97 99.593-182.219 231.647-182.219 111.397 0 211.729 38.362 283.288 124.676l56.068-61.969c-75.986-88.527-188.12-140.168-335.666-140.168-179.268 0-324.601 102.544-324.601 264.107 0 345.257 593.133 194.023 593.133 484.688 0 84.839-57.543 196.974-259.68 196.974-142.382 0-246.401-70.822-309.846-143.857l-54.592 64.183c75.986 90.741 198.449 157.137 362.224 157.137 267.058 0 351.159-152.71 351.159-280.337 0-368.864-593.133-229.433-593.133-483.212z"></path>
<path d="M915.517 289.575h77.462v716.334h-77.462v-716.334z"></path>
<path d="M954.617 59.404c-30.985 0-59.019 25.083-59.019 57.543s28.034 59.019 59.019 59.019c32.46 0 59.019-26.558 59.019-59.019s-26.558-57.543-59.019-57.543z"></path>
<path d="M1400.942 954.268c-50.165 0-74.511-39.837-74.511-98.118v-498.704h145.333v-67.871h-145.333v-195.498h-78.937v195.498h-118.775v67.871h118.775v510.508c0 98.118 45.74 155.661 140.906 155.661 59.019 0 93.691-17.706 121.725-44.264l-29.509-59.019c-16.23 17.706-45.74 33.935-79.675 33.935z"></path>
<path d="M1944.648 271.87c-198.449 0-343.781 167.464-343.781 375.504 0 221.318 148.283 376.979 357.060 376.979 118.775 0 208.777-41.313 280.337-115.824l-39.837-50.165c-60.493 64.92-143.857 99.593-234.597 99.593-168.94 0-272.959-129.103-280.337-284.764h599.036v-20.656c0.737-208.777-119.512-380.668-337.88-380.668zM1684.23 611.224c5.902-124.676 90.741-272.959 259.68-272.959 179.268 0 259.68 151.234 261.156 272.959h-520.837z"></path>
<path d="M2816.643 271.87c-104.020 0-205.826 63.444-258.205 126.152v-108.446h-77.462v716.334h77.462v-541.493c45.74-64.92 140.906-123.2 233.122-123.2 104.020 0 173.366 41.313 173.366 179.268v484.688h77.462v-501.655c0-160.825-80.412-231.647-225.745-231.647z"></path>
<path d="M3554.371 271.87c-118.775 0-201.4 39.837-275.91 120.249l42.788 53.116c64.92-74.511 135.004-105.496 225.745-105.496 105.496 0 191.072 57.543 191.072 164.513v145.333c-61.969-69.347-143.857-102.544-243.451-102.544-124.676 0-250.828 81.888-250.828 237.548 0 154.185 127.627 239.024 250.828 239.024 99.593 0 179.268-32.46 243.451-102.544v84.839h77.462v-504.606c-0.737-160.087-115.824-229.433-261.156-229.433zM3738.066 865.003c-50.165 64.92-130.578 98.118-216.893 98.118-117.299 0-195.498-75.986-195.498-176.317 0-102.544 78.937-177.792 195.498-177.792 86.314 0 165.989 32.46 216.893 99.593v156.398z"></path>
<path d="M4789.328 271.87c-101.069 0-196.974 67.871-237.548 135.004-17.706-69.347-77.462-135.004-188.12-135.004-104.020 0-201.4 80.412-231.647 126.152v-108.446h-77.462v716.334h77.462v-541.493c42.788-64.92 129.103-123.2 205.826-123.2 101.069 0 142.382 61.969 142.382 163.038v501.655h78.937v-542.968c39.837-64.92 127.627-121.725 204.351-121.725 101.069 0 143.857 61.969 143.857 163.038v501.655h77.462v-516.41c0-143.857-63.444-217.63-195.498-217.63z"></path>
<path d="M5867.888 651.8c0-207.302-120.249-379.93-337.88-379.93-198.449 0-343.781 167.464-343.781 375.504 0 221.318 148.283 376.979 357.799 376.979 118.775 0 208.777-41.313 280.337-115.824l-39.837-50.165c-60.493 64.92-143.857 99.593-234.597 99.593-168.94 0-272.959-129.103-280.337-284.764h599.036v-21.394zM5268.115 611.224c5.902-124.676 90.741-272.959 259.68-272.959 179.268 0 259.68 151.234 261.156 272.959h-520.837z"></path>
</svg>
