<?xml version="1.0" encoding="utf-8"?><!DOCTYPE svg PUBLIC "-//W3C//DTD SVG 1.1//EN" "http://www.w3.org/Graphics/SVG/1.1/DTD/svg11.dtd"><svg xmlns="http://www.w3.org/2000/svg" xmlns:xlink="http://www.w3.org/1999/xlink"><defs><svg viewBox="0 0 512 512" id="icn-alert"><path d="M256 48C141.6 48 48 141.601 48 256s93.6 208 208 208 208-93.601 208-208S370.4 48 256 48zm24 312h-48v-40h48v40zm0-88h-48V144h48v128z" fill="#e00000"/></svg><svg viewBox="0 0 32 32" id="icn-arrow"><path d="M24.5 14L11.5.8c-.5-.5-1.2-.8-2-.8S8 .3 7.5.8c-1 1-1 3 0 4l11 11-11 11.3c-1 1.2-1 3 0 4 .5.7 1.2 1 1.6 1h.4c.8 0 1.5-.3 2-.8l13-13.2c1-1 1-3 0-4z"/></svg><svg viewBox="-629 391 20 20" id="icn-close"><path d="M-612.5 406.5l-5.5-5.5 5.5-5.5c.1-.1.2-.3.2-.5s-.1-.4-.2-.5c-.3-.3-.8-.3-1.1 0l-5.5 5.5-5.5-5.5c-.3-.3-.8-.3-1.1 0-.3.3-.3.8 0 1.1l5.5 5.5-5.5 5.5c-.1.1-.2.3-.2.5s.1.4.2.5c.3.3.8.3 1.1 0l5.5-5.5 5.5 5.5c.1.1.3.2.5.2s.4-.1.5-.2c.4-.4.4-.8.1-1.1z"/></svg><svg viewBox="-629 391 20 20" id="icn-hamburger"><path d="M-626.5 397.2h15c.4 0 .8-.3.8-.8s-.3-.8-.8-.8h-15c-.4 0-.8.3-.8.8s.4.8.8.8zm15 3.6h-15c-.4 0-.8.3-.8.8s.3.8.8.8h15c.4 0 .8-.3.8-.8s-.4-.8-.8-.8zm0 5h-15c-.4 0-.8.3-.8.8s.3.8.8.8h15c.4 0 .8-.3.8-.8s-.4-.8-.8-.8z"/></svg><svg viewBox="-629 391 20 20" id="icn-search"><path d="M-610 409.5l-4.7-5.3c1.3-1.4 2-3.3 2-5.2 0-2-.8-4-2.3-5.5-1.5-1.5-3.4-2.3-5.5-2.3-2 0-4 .8-5.5 2.3-1.5 1.5-2.3 3.4-2.3 5.5 0 2 .8 4 2.3 5.5 1.5 1.5 3.4 2.3 5.5 2.3 1.7 0 3.3-.5 4.7-1.6l4.7 5.3c0 .2.2.2.5.2.2 0 .4 0 .5-.2l.2-.5c0-.2 0-.4-.2-.5zm-10.5-16.7c3.4 0 6.2 2.8 6.2 6.2s-2.8 6.2-6.2 6.2-6.2-2.8-6.2-6.2 2.8-6.2 6.2-6.2z"/></svg><svg viewBox="0 0 5870 1024" id="logo"><path d="M122.458 260.066c0-106.97 99.593-182.219 231.647-182.219 111.397 0 211.729 38.362 283.288 124.676l56.068-61.969C617.475 52.027 505.341.386 357.795.386 178.527.386 33.194 102.93 33.194 264.493c0 345.257 593.133 194.023 593.133 484.688 0 84.839-57.543 196.974-259.68 196.974-142.382 0-246.401-70.822-309.846-143.857L2.209 866.481c75.986 90.741 198.449 157.137 362.224 157.137 267.058 0 351.159-152.71 351.159-280.337 0-368.864-593.133-229.433-593.133-483.212zM915.517 289.575h77.462v716.334h-77.462V289.575zM954.617 59.404c-30.985 0-59.019 25.083-59.019 57.543s28.034 59.019 59.019 59.019c32.46 0 59.019-26.558 59.019-59.019s-26.558-57.543-59.019-57.543zM1400.942 954.268c-50.165 0-74.511-39.837-74.511-98.118V357.446h145.333v-67.871h-145.333V94.077h-78.937v195.498h-118.775v67.871h118.775v510.508c0 98.118 45.74 155.661 140.906 155.661 59.019 0 93.691-17.706 121.725-44.264l-29.509-59.019c-16.23 17.706-45.74 33.935-79.675 33.935zM1944.648 271.87c-198.449 0-343.781 167.464-343.781 375.504 0 221.318 148.283 376.979 357.06 376.979 118.775 0 208.777-41.313 280.337-115.824l-39.837-50.165c-60.493 64.92-143.857 99.593-234.597 99.593-168.94 0-272.959-129.103-280.337-284.764h599.036v-20.656c.737-208.777-119.512-380.668-337.88-380.668zM1684.23 611.224c5.902-124.676 90.741-272.959 259.68-272.959 179.268 0 259.68 151.234 261.156 272.959h-520.837zM2816.643 271.87c-104.02 0-205.826 63.444-258.205 126.152V289.576h-77.462v716.334h77.462V464.417c45.74-64.92 140.906-123.2 233.122-123.2 104.02 0 173.366 41.313 173.366 179.268v484.688h77.462V503.518c0-160.825-80.412-231.647-225.745-231.647zM3554.371 271.87c-118.775 0-201.4 39.837-275.91 120.249l42.788 53.116c64.92-74.511 135.004-105.496 225.745-105.496 105.496 0 191.072 57.543 191.072 164.513v145.333c-61.969-69.347-143.857-102.544-243.451-102.544-124.676 0-250.828 81.888-250.828 237.548 0 154.185 127.627 239.024 250.828 239.024 99.593 0 179.268-32.46 243.451-102.544v84.839h77.462V501.302c-.737-160.087-115.824-229.433-261.156-229.433zm183.695 593.133c-50.165 64.92-130.578 98.118-216.893 98.118-117.299 0-195.498-75.986-195.498-176.317 0-102.544 78.937-177.792 195.498-177.792 86.314 0 165.989 32.46 216.893 99.593v156.398zM4789.328 271.87c-101.069 0-196.974 67.871-237.548 135.004-17.706-69.347-77.462-135.004-188.12-135.004-104.02 0-201.4 80.412-231.647 126.152V289.576h-77.462v716.334h77.462V464.417c42.788-64.92 129.103-123.2 205.826-123.2 101.069 0 142.382 61.969 142.382 163.038v501.655h78.937V462.942c39.837-64.92 127.627-121.725 204.351-121.725 101.069 0 143.857 61.969 143.857 163.038v501.655h77.462V489.5c0-143.857-63.444-217.63-195.498-217.63zM5867.888 651.8c0-207.302-120.249-379.93-337.88-379.93-198.449 0-343.781 167.464-343.781 375.504 0 221.318 148.283 376.979 357.799 376.979 118.775 0 208.777-41.313 280.337-115.824l-39.837-50.165c-60.493 64.92-143.857 99.593-234.597 99.593-168.94 0-272.959-129.103-280.337-284.764h599.036v-21.394zm-599.773-40.576c5.902-124.676 90.741-272.959 259.68-272.959 179.268 0 259.68 151.234 261.156 272.959h-520.837z"/></svg><svg viewBox="0 0 512 512" id="pause"><path d="M128 96h79v320h-79zM305 96h79v320h-79z"/></svg><svg viewBox="0 0 512 512" id="play"><path d="M128 96v320l256-160L128 96z"/></svg><svg viewBox="0 0 512 512" id="social-facebook"><path d="M288 192v-38.1c0-17.2 3.8-25.9 30.5-25.9H352V64h-55.9c-68.5 0-91.1 31.4-91.1 85.3V192h-45v64h45v192h83V256h56.4l7.6-64h-64z"/></svg><svg viewBox="0 0 512 512" id="social-linkedin"><path d="M417.2 64H96.8C79.3 64 64 76.6 64 93.9V415c0 17.4 15.3 32.9 32.8 32.9h320.3c17.6 0 30.8-15.6 30.8-32.9V93.9C448 76.6 434.7 64 417.2 64zM183 384h-55V213h55v171zm-25.6-197h-.4c-17.6 0-29-13.1-29-29.5 0-16.7 11.7-29.5 29.7-29.5s29 12.7 29.4 29.5c0 16.4-11.4 29.5-29.7 29.5zM384 384h-55v-93.5c0-22.4-8-37.7-27.9-37.7-15.2 0-24.2 10.3-28.2 20.3-1.5 3.6-1.9 8.5-1.9 13.5V384h-55V213h55v23.8c8-11.4 20.5-27.8 49.6-27.8 36.1 0 63.4 23.8 63.4 75.1V384z"/></svg><svg viewBox="0 0 512 512" id="social-pinterest"><path d="M256 32C132.3 32 32 132.3 32 256c0 91.7 55.2 170.5 134.1 205.2-.6-15.6-.1-34.4 3.9-51.4 4.3-18.2 28.8-122.1 28.8-122.1s-7.2-14.3-7.2-35.4c0-33.2 19.2-58 43.2-58 20.4 0 30.2 15.3 30.2 33.6 0 20.5-13.1 51.1-19.8 79.5-5.6 23.8 11.9 43.1 35.4 43.1 42.4 0 71-54.5 71-119.1 0-49.1-33.1-85.8-93.2-85.8-67.9 0-110.3 50.7-110.3 107.3 0 19.5 5.8 33.3 14.8 43.9 4.1 4.9 4.7 6.9 3.2 12.5-1.1 4.1-3.5 14-4.6 18-1.5 5.7-6.1 7.7-11.2 5.6-31.3-12.8-45.9-47-45.9-85.6 0-63.6 53.7-139.9 160.1-139.9 85.5 0 141.8 61.9 141.8 128.3 0 87.9-48.9 153.5-120.9 153.5-24.2 0-46.9-13.1-54.7-27.9 0 0-13 51.6-15.8 61.6-4.7 17.3-14 34.5-22.5 48 20.1 5.9 41.4 9.2 63.5 9.2 123.7 0 224-100.3 224-224C480 132.3 379.7 32 256 32z"/></svg><svg viewBox="0 0 512 512" id="social-twitter"><path d="M492 109.5c-17.4 7.7-36 12.9-55.6 15.3 20-12 35.4-31 42.6-53.6-18.7 11.1-39.4 19.2-61.5 23.5C399.8 75.8 374.6 64 346.8 64c-53.5 0-96.8 43.4-96.8 96.9 0 7.6.8 15 2.5 22.1-80.5-4-151.9-42.6-199.6-101.3-8.3 14.3-13.1 31-13.1 48.7 0 33.6 17.2 63.3 43.2 80.7-16-.4-31-4.8-44-12.1v1.2c0 47 33.4 86.1 77.7 95-8.1 2.2-16.7 3.4-25.5 3.4-6.2 0-12.3-.6-18.2-1.8 12.3 38.5 48.1 66.5 90.5 67.3-33.1 26-74.9 41.5-120.3 41.5-7.8 0-15.5-.5-23.1-1.4C62.8 432 113.7 448 168.3 448 346.6 448 444 300.3 444 172.2c0-4.2-.1-8.4-.3-12.5C462.6 146 479 129 492 109.5z"/></svg><svg viewBox="0 0 512 512" id="social-youtube"><path d="M508.6 148.8c0-45-33.1-81.2-74-81.2C379.2 65 322.7 64 265 64h-18c-57.6 0-114.2 1-169.6 3.6C36.6 67.6 3.5 104 3.5 149 1 184.6-.1 220.2 0 255.8c-.1 35.6 1 71.2 3.4 106.9 0 45 33.1 81.5 73.9 81.5 58.2 2.7 117.9 3.9 178.6 3.8 60.8.2 120.3-1 178.6-3.8 40.9 0 74-36.5 74-81.5 2.4-35.7 3.5-71.3 3.4-107 .2-35.6-.9-71.2-3.3-106.9zM207 353.9V157.4l145 98.2-145 98.3z"/></svg></defs></svg>